<?xml version="1.0" encoding="UTF-8"?>
<!DOCTYPE svg PUBLIC "-//W3C//DTD SVG 1.1//EN" "http://www.w3.org/Graphics/SVG/1.1/DTD/svg11.dtd">
<!-- Creator: CorelDRAW X6 -->
<svg xmlns="http://www.w3.org/2000/svg" xml:space="preserve" width="82.2939mm" height="45.2807mm" version="1.1" style="shape-rendering:geometricPrecision; text-rendering:geometricPrecision; image-rendering:optimizeQuality; fill-rule:evenodd; clip-rule:evenodd"
viewBox="0 0 3156 1736"
 xmlns:xlink="http://www.w3.org/1999/xlink">
 <defs>
  <style type="text/css">
   <![CDATA[
    .fil1 {fill:#99CCCC;fill-rule:nonzero}
    .fil0 {fill:white;fill-rule:nonzero}
   ]]>
  </style>
 </defs>
 <g id="Capa_x0020_1">
  <metadata id="CorelCorpID_0Corel-Layer"/>
  <g id="_589724392">
   <g>
    <polygon class="fil0" points="550,1169 550,1066 565,1066 565,1309 550,1309 550,1183 402,1183 402,1309 387,1309 387,1066 402,1066 402,1169 "/>
    <path class="fil0" d="M887 1187c0,68 -58,125 -126,125 -68,0 -126,-56 -126,-125 0,-68 57,-125 126,-125 68,0 126,56 126,125zm-237 0l0 0c0,60 50,110 111,110 60,0 111,-51 111,-110 0,-60 -50,-110 -111,-110 -61,0 -111,50 -111,110z"/>
    <polygon class="fil0" points="1011,1309 996,1309 996,1080 933,1080 933,1066 1074,1066 1074,1080 1011,1080 "/>
    <polygon class="fil0" points="1150,1080 1150,1168 1248,1168 1248,1183 1150,1183 1150,1294 1251,1294 1251,1309 1135,1309 1135,1066 1251,1066 1251,1080 "/>
    <polygon class="fil0" points="1346,1294 1407,1294 1407,1309 1330,1309 1330,1066 1346,1066 "/>
    <path class="fil0" d="M1495 1066l97 0c52,0 88,24 88,80 0,57 -31,83 -86,83l-36 0 0 81 -63 0 0 -243zm63 112l0 0 11 0c23,0 45,0 45,-30 0,-31 -21,-31 -45,-31l-11 0 0 61z"/>
    <polygon class="fil0" points="1803,1255 1879,1255 1879,1309 1740,1309 1740,1066 1803,1066 "/>
    <path class="fil0" d="M1993 1266l-17 42 -67 0 93 -243 69 0 92 243 -67 0 -16 -42 -87 0zm44 -126l0 0 -1 0 -26 77 53 0 -26 -77z"/>
    <polygon class="fil0" points="2407,1255 2407,1309 2198,1309 2313,1119 2218,1119 2218,1066 2419,1066 2305,1255 "/>
    <path class="fil0" d="M2537 1266l-17 42 -67 0 93 -243 69 0 92 243 -67 0 -16 -42 -87 0zm44 -126l0 0 -1 0 -26 77 53 0 -26 -77z"/>
   </g>
   <path class="fil1" d="M1248 412l-194 -17c-42,28 -82,57 -120,86l222 0c28,-22 58,-45 92,-69zm136 -86l0 0 -171 -30c-45,25 -87,52 -128,78l193 17c33,-22 68,-44 106,-65zm740 -234l0 0c-5,36 -4,74 -3,91 10,214 94,414 209,548 60,50 138,73 155,80 -170,-191 -269,-522 -187,-810 -336,2 -629,81 -877,191l153 41c154,-65 337,-118 549,-140zm85 679l0 0c-611,-200 -1252,-96 -1252,-96 0,0 57,-74 172,-171l-224 0c-280,219 -428,426 -428,426 0,0 1099,-351 2093,0 -66,-42 -241,-119 -362,-159zm-668 -523l0 0 -152 -41c-49,23 -97,47 -142,72l171 30c39,-21 80,-42 124,-61z"/>
  </g>
  <path class="fil0" d="M85 1595c0,-1 0,-3 -1,-6 0,-3 -1,-5 -3,-8 -2,-3 -4,-5 -7,-7 -3,-2 -7,-3 -12,-3 -6,0 -10,1 -14,4 -4,3 -7,6 -10,11 -3,5 -4,10 -6,16 -1,6 -2,13 -2,20 0,1 0,4 0,6 0,3 0,6 1,10 1,4 1,7 3,11 1,4 3,7 5,10 2,3 5,6 8,8 3,2 7,3 12,3 3,0 6,-1 9,-2 3,-1 6,-3 8,-5 2,-2 4,-5 6,-8 1,-3 2,-7 2,-12l31 0c0,2 0,4 -1,7 0,3 -1,5 -2,8 -1,3 -2,6 -4,9 -2,3 -4,6 -7,9 -3,3 -6,6 -10,8 -3,2 -7,4 -10,5 -4,1 -7,2 -10,2 -3,0 -7,1 -10,1 -12,0 -22,-2 -30,-6 -8,-4 -15,-9 -20,-16 -5,-7 -8,-14 -11,-22 -2,-8 -3,-17 -3,-25 0,-11 1,-21 4,-30 3,-9 7,-17 13,-23 6,-6 12,-11 20,-15 8,-4 17,-5 26,-5 8,0 15,1 21,3 6,2 12,5 16,9 5,4 8,9 11,15 3,6 4,12 4,19l-30 0zm76 25c0,7 1,13 2,20 1,7 4,13 8,18 2,3 5,6 9,8 4,2 9,3 16,3 12,0 20,-4 26,-13 1,-2 2,-4 3,-6 1,-2 2,-5 3,-8 1,-3 2,-7 2,-11 1,-4 1,-9 1,-15 0,-3 0,-7 -1,-12 0,-4 -1,-9 -3,-13 -3,-9 -7,-15 -13,-19 -6,-4 -12,-6 -19,-6 -6,0 -11,1 -15,3 -4,2 -8,5 -11,9 -4,5 -7,11 -8,18 -1,7 -2,15 -2,22zm-31 1c0,-9 1,-18 3,-27 2,-9 6,-17 11,-24 5,-7 12,-13 21,-17 8,-4 19,-6 32,-6 4,0 8,0 12,1 4,1 9,1 13,3 4,1 9,3 13,6 4,2 8,6 11,9 4,4 7,9 9,13 2,5 4,9 5,14 1,5 2,9 3,13 0,4 1,8 1,12 0,5 0,10 -1,15 -1,5 -2,10 -3,15 -1,5 -3,9 -5,13 -2,4 -5,8 -7,11 -4,4 -8,8 -13,10 -5,3 -9,5 -14,6 -4,1 -9,2 -13,3 -4,0 -8,1 -10,1 -9,0 -18,-2 -27,-5 -9,-3 -16,-8 -22,-15 -4,-4 -7,-8 -9,-13 -2,-5 -4,-9 -5,-14 -1,-5 -2,-9 -2,-13 0,-4 -1,-8 -1,-11zm155 -71l30 0 0 115 60 0 0 24 -90 0 0 -139zm171 -10l-15 0 16 -28 26 0 -26 28zm-38 80c0,7 1,13 2,20 1,7 4,13 8,18 2,3 5,6 9,8 4,2 9,3 16,3 12,0 20,-4 26,-13 1,-2 2,-4 3,-6 1,-2 2,-5 3,-8 1,-3 2,-7 2,-11 1,-4 1,-9 1,-15 0,-3 0,-7 -1,-12 0,-4 -1,-9 -3,-13 -3,-9 -7,-15 -13,-19 -6,-4 -12,-6 -19,-6 -6,0 -11,1 -15,3 -4,2 -8,5 -11,9 -4,5 -7,11 -8,18 -1,7 -2,15 -2,22zm-31 1c0,-9 1,-18 3,-27 2,-9 6,-17 11,-24 5,-7 12,-13 21,-17 8,-4 19,-6 32,-6 4,0 8,0 12,1 4,1 9,1 13,3 4,1 9,3 13,6 4,2 8,6 11,9 4,4 7,9 9,13 2,5 4,9 5,14 1,5 2,9 3,13 0,4 1,8 1,12 0,5 0,10 -1,15 -1,5 -2,10 -3,15 -1,5 -3,9 -5,13 -2,4 -5,8 -7,11 -4,4 -8,8 -13,10 -5,3 -9,5 -14,6 -4,1 -9,2 -13,3 -4,0 -8,1 -10,1 -9,0 -18,-2 -27,-5 -9,-3 -16,-8 -22,-15 -4,-4 -7,-8 -9,-13 -2,-5 -4,-9 -5,-14 -1,-5 -2,-9 -2,-13 0,-4 -1,-8 -1,-11zm155 -72l43 0 52 109 0 -109 28 0 0 139 -41 0 -54 -115 0 115 -28 0 0 -139zm205 -5l12 0 0 192 -12 0 0 -192zm100 144l0 -139 82 0 0 12 -70 0 0 50 67 0 0 12 -67 0 0 54 73 0 0 12 -85 0zm116 -139l14 0 77 122 0 0 0 -122 12 0 0 139 -16 0 -75 -120 0 0 0 120 -12 0 0 -139zm169 12l-45 0 0 -12 101 0 0 12 -44 0 0 127 -12 0 0 -127zm92 127l-12 0 0 -139 45 0c6,0 12,0 17,1 5,1 11,3 16,6 5,3 8,7 11,12 2,5 3,11 3,17 0,8 -2,14 -7,19 -5,5 -11,9 -19,11l0 0c4,1 8,2 11,4 3,2 5,4 7,7 2,3 3,6 4,9 1,3 1,7 2,11 1,6 1,11 1,15 0,4 1,8 1,11 0,3 1,6 2,9 1,3 2,5 3,7l-14 0c-2,-5 -3,-9 -3,-14 -1,-5 -1,-10 -1,-15 -1,-8 -2,-14 -2,-19 -1,-5 -2,-9 -4,-11 -2,-3 -5,-4 -8,-5 -4,-1 -9,-1 -15,-1l-34 0 0 66zm27 -78c4,0 9,0 14,-1 5,0 9,-1 13,-3 4,-2 7,-4 10,-7 2,-3 4,-8 4,-14 0,-7 -1,-12 -4,-15 -3,-3 -6,-6 -10,-7 -4,-1 -8,-2 -12,-2 -4,0 -8,0 -12,0l-28 0 0 50 27 0zm89 78l0 -139 82 0 0 12 -70 0 0 50 67 0 0 12 -67 0 0 54 73 0 0 12 -85 0zm184 0l-12 0 0 -139 45 0c6,0 12,0 17,1 5,1 11,3 16,6 5,3 8,7 11,12 2,5 3,11 3,17 0,8 -2,14 -7,19 -5,5 -11,9 -19,11l0 0c4,1 8,2 11,4 3,2 5,4 7,7 2,3 3,6 4,9 1,3 1,7 2,11 1,6 1,11 1,15 0,4 1,8 1,11 0,3 1,6 2,9 1,3 2,5 3,7l-14 0c-2,-5 -3,-9 -3,-14 -1,-5 -1,-10 -1,-15 -1,-8 -2,-14 -2,-19 -1,-5 -2,-9 -4,-11 -2,-3 -5,-4 -8,-5 -4,-1 -9,-1 -15,-1l-34 0 0 66zm27 -78c4,0 9,0 14,-1 5,0 9,-1 13,-3 4,-2 7,-4 10,-7 2,-3 4,-8 4,-14 0,-7 -1,-12 -4,-15 -3,-3 -6,-6 -10,-7 -4,-1 -8,-2 -12,-2 -4,0 -8,0 -12,0l-28 0 0 50 27 0zm90 78l0 -139 12 0 0 139 -12 0zm170 -69c0,11 -1,21 -4,30 -3,9 -7,17 -12,23 -5,6 -12,11 -19,15 -8,3 -17,5 -27,5 -10,0 -19,-2 -27,-5 -8,-3 -14,-8 -19,-15 -5,-6 -9,-14 -12,-23 -3,-9 -4,-19 -4,-30 0,-11 1,-21 4,-30 3,-9 7,-17 12,-23 5,-6 12,-11 19,-15 8,-3 17,-5 27,-5 10,0 19,2 27,5 8,3 14,8 19,15 5,6 9,14 12,23 3,9 4,19 4,30zm-110 0c0,8 1,15 3,22 2,7 5,14 9,20 4,6 9,10 15,14 6,3 13,5 22,5 9,0 16,-2 22,-5 6,-3 11,-8 15,-14 4,-6 7,-12 9,-20 2,-7 3,-15 3,-22 0,-8 -1,-15 -3,-22 -2,-7 -5,-14 -9,-20 -4,-6 -9,-10 -15,-14 -6,-3 -14,-5 -22,-5 -9,0 -16,2 -22,5 -6,3 -11,8 -15,14 -4,6 -7,12 -9,20 -2,7 -3,15 -3,22zm230 33c0,8 -2,14 -5,19 -3,5 -7,9 -12,12 -5,3 -11,5 -17,6 -6,1 -13,2 -20,2 -6,0 -11,-1 -16,-3 -5,-2 -9,-5 -13,-8 -4,-3 -7,-8 -9,-12 -2,-5 -3,-10 -4,-16l13 0c0,5 1,10 3,13 2,4 4,6 8,8 3,2 7,4 11,4 4,1 9,1 13,1 4,0 8,-1 12,-2 4,-1 8,-3 11,-5 3,-2 6,-5 8,-8 2,-3 3,-7 3,-12 0,-3 -1,-6 -2,-9 -1,-3 -3,-5 -5,-7 -2,-2 -4,-4 -7,-5 -3,-1 -5,-3 -8,-4 -6,-2 -12,-4 -18,-6 -7,-2 -13,-5 -18,-8 -6,-3 -10,-7 -14,-12 -4,-5 -6,-11 -6,-19 0,-6 1,-11 4,-16 3,-5 6,-9 10,-12 4,-3 9,-6 14,-7 5,-2 11,-3 16,-3 5,0 9,0 14,1 5,1 10,3 14,5 4,2 8,6 11,10 3,4 5,10 6,16l-13 0c0,-4 -1,-8 -3,-11 -2,-3 -4,-5 -7,-7 -3,-2 -6,-3 -10,-3 -4,-1 -7,-1 -11,-1 -4,0 -7,0 -11,1 -4,1 -7,2 -10,4 -3,2 -6,4 -8,7 -2,3 -3,7 -3,11 0,7 2,12 6,15 4,4 9,7 15,9 6,3 12,5 19,7 7,2 13,4 19,7 6,3 11,7 15,12 4,5 6,11 6,19zm80 -108l12 0 0 192 -12 0 0 -192zm77 144l55 -139 15 0 55 139 -14 0 -15 -37 -69 0 -15 37 -13 0zm92 -49l-30 -78 -31 78 61 0zm67 49l-12 0 0 -139 45 0c6,0 12,0 17,1 5,1 11,3 16,6 5,3 8,7 11,12 2,5 3,11 3,17 0,8 -2,14 -7,19 -5,5 -11,9 -19,11l0 0c4,1 8,2 11,4 3,2 5,4 7,7 2,3 3,6 4,9 1,3 1,7 2,11 1,6 1,11 1,15 0,4 1,8 1,11 0,3 1,6 2,9 1,3 2,5 3,7l-14 0c-2,-5 -3,-9 -3,-14 -1,-5 -1,-10 -1,-15 -1,-8 -2,-14 -2,-19 -1,-5 -2,-9 -4,-11 -2,-3 -5,-4 -8,-5 -4,-1 -9,-1 -15,-1l-34 0 0 66zm27 -78c4,0 9,0 14,-1 5,0 9,-1 13,-3 4,-2 7,-4 10,-7 2,-3 4,-8 4,-14 0,-7 -1,-12 -4,-15 -3,-3 -6,-6 -10,-7 -4,-1 -8,-2 -12,-2 -4,0 -8,0 -12,0l-28 0 0 50 27 0zm187 7l0 65c-8,3 -17,6 -25,7 -8,1 -16,2 -25,2 -9,0 -18,-2 -25,-5 -7,-4 -14,-8 -19,-15 -5,-6 -9,-14 -11,-23 -3,-9 -4,-19 -4,-29 0,-9 1,-18 4,-26 2,-9 6,-16 11,-23 5,-7 11,-12 19,-16 7,-4 16,-6 26,-6 6,0 11,1 17,2 6,2 11,4 15,7 4,3 8,7 11,12 3,5 5,10 5,16l-14 0c-1,-4 -2,-8 -4,-11 -2,-3 -5,-6 -8,-8 -3,-2 -7,-4 -11,-5 -4,-1 -8,-2 -12,-2 -8,0 -15,2 -21,5 -6,4 -10,8 -14,14 -4,6 -6,12 -8,20 -2,7 -3,14 -3,22 0,9 1,17 3,24 2,7 5,14 9,19 4,5 10,10 16,13 7,3 15,5 24,5 5,0 10,-1 16,-2 5,-1 10,-3 15,-4l0 -45 -35 0 0 -12 47 0zm37 71l0 -139 82 0 0 12 -70 0 0 50 67 0 0 12 -67 0 0 54 73 0 0 12 -85 0zm116 -139l14 0 77 122 0 0 0 -122 12 0 0 139 -16 0 -75 -120 0 0 0 120 -12 0 0 -139zm169 12l-45 0 0 -12 101 0 0 12 -44 0 0 127 -12 0 0 -127zm80 127l0 -139 12 0 0 139 -12 0zm51 -139l14 0 77 122 0 0 0 -122 12 0 0 139 -16 0 -75 -120 0 0 0 120 -12 0 0 -139zm123 139l55 -139 15 0 55 139 -14 0 -15 -37 -69 0 -15 37 -13 0zm92 -49l-30 -78 -31 78 61 0z"/>
 </g>
</svg>
